<svg xmlns="http://www.w3.org/2000/svg" xmlns:xlink="http://www.w3.org/1999/xlink" width="687" zoomAndPan="magnify" viewBox="0 0 515.25 331.499995" height="442" preserveAspectRatio="xMidYMid meet" version="1.2"><defs/><g id="0fc8aa0c35"><g style="fill:#ffffff;fill-opacity:1;"><g transform="translate(30.563229, 153.406302)"><path style="stroke:none" d="M 90.328125 10.25 C 96.003906 15.539062 99.925781 19.125 102.09375 21 C 104.257812 22.875 106.226562 24.289062 108 25.25 C 109.78125 26.207031 111.585938 26.6875 113.421875 26.6875 L 113.421875 31.453125 L 108.796875 31.453125 C 104.566406 31.453125 101.34375 31.332031 99.125 31.09375 C 96.914062 30.851562 94.632812 30.15625 92.28125 29 C 89.925781 27.84375 87.300781 25.96875 84.40625 23.375 C 81.71875 20.96875 78.445312 17.742188 74.59375 13.703125 C 70.457031 9.566406 67.210938 6.632812 64.859375 4.90625 C 62.503906 3.175781 59.882812 2.3125 57 2.3125 C 45.644531 2.113281 36.191406 -0.554688 28.640625 -5.703125 C 21.085938 -10.847656 15.53125 -17.390625 11.96875 -25.328125 C 8.414062 -33.265625 6.640625 -41.65625 6.640625 -50.5 C 6.640625 -59.0625 8.535156 -67.382812 12.328125 -75.46875 C 16.128906 -83.550781 21.804688 -90.210938 29.359375 -95.453125 C 36.910156 -100.691406 46.078125 -103.3125 56.859375 -103.3125 C 67.921875 -103.3125 77.320312 -100.691406 85.0625 -95.453125 C 92.800781 -90.210938 98.59375 -83.550781 102.4375 -75.46875 C 106.289062 -67.382812 108.21875 -59.0625 108.21875 -50.5 C 108.21875 -43.1875 106.773438 -35.898438 103.890625 -28.640625 C 101.003906 -21.378906 96.648438 -15.078125 90.828125 -9.734375 C 85.015625 -4.398438 77.972656 -0.816406 69.703125 1.015625 C 73.640625 1.109375 77.070312 1.734375 80 2.890625 C 82.9375 4.046875 86.378906 6.5 90.328125 10.25 Z M 20.78125 -53.09375 C 20.78125 -45.5 22.171875 -37.878906 24.953125 -30.234375 C 27.742188 -22.585938 31.976562 -16.238281 37.65625 -11.1875 C 43.332031 -6.132812 50.210938 -3.609375 58.296875 -3.609375 C 65.796875 -3.609375 72.210938 -5.75 77.546875 -10.03125 C 82.890625 -14.3125 86.929688 -19.816406 89.671875 -26.546875 C 92.421875 -33.285156 93.796875 -40.359375 93.796875 -47.765625 C 93.796875 -55.941406 92.300781 -63.851562 89.3125 -71.5 C 86.332031 -79.144531 82.003906 -85.394531 76.328125 -90.25 C 70.648438 -95.113281 64.015625 -97.546875 56.421875 -97.546875 C 48.921875 -97.546875 42.472656 -95.40625 37.078125 -91.125 C 31.691406 -86.84375 27.628906 -81.285156 24.890625 -74.453125 C 22.148438 -67.628906 20.78125 -60.507812 20.78125 -53.09375 Z M 20.78125 -53.09375 "/></g></g><g style="fill:#ffffff;fill-opacity:1;"><g transform="translate(145.427917, 153.406302)"><path style="stroke:none" d="M 26.546875 2.3125 C 19.523438 2.3125 14.160156 0.722656 10.453125 -2.453125 C 6.753906 -5.628906 4.90625 -9.765625 4.90625 -14.859375 C 4.90625 -20.441406 7.140625 -25.15625 11.609375 -29 C 16.085938 -32.851562 21.71875 -35.71875 28.5 -37.59375 C 35.28125 -39.46875 42.085938 -40.359375 48.921875 -40.265625 L 48.921875 -49.203125 C 48.921875 -55.453125 48.003906 -60.332031 46.171875 -63.84375 C 44.347656 -67.363281 40.453125 -69.125 34.484375 -69.125 C 31.503906 -69.125 28.664062 -68.492188 25.96875 -67.234375 C 23.28125 -65.984375 21.3125 -64.109375 20.0625 -61.609375 C 21.3125 -60.265625 21.9375 -58.4375 21.9375 -56.125 C 21.9375 -54.6875 21.40625 -53.316406 20.34375 -52.015625 C 19.289062 -50.722656 17.753906 -50.078125 15.734375 -50.078125 C 13.710938 -50.078125 12.125 -50.722656 10.96875 -52.015625 C 9.8125 -53.316406 9.234375 -55.023438 9.234375 -57.140625 C 9.234375 -60.316406 10.457031 -63.226562 12.90625 -65.875 C 15.363281 -68.519531 18.78125 -70.609375 23.15625 -72.140625 C 27.53125 -73.679688 32.414062 -74.453125 37.8125 -74.453125 C 45.882812 -74.453125 51.84375 -72.3125 55.6875 -68.03125 C 59.539062 -63.75 61.421875 -56.992188 61.328125 -47.765625 L 61.1875 -15.296875 C 61.1875 -12.210938 60.992188 -8.941406 60.609375 -5.484375 L 70.84375 -6.0625 L 70.84375 0 L 50.21875 0 C 49.925781 -1.445312 49.585938 -4.1875 49.203125 -8.21875 C 42.179688 -1.195312 34.628906 2.3125 26.546875 2.3125 Z M 29.875 -5.921875 C 33.53125 -5.921875 36.847656 -6.613281 39.828125 -8 C 42.804688 -9.394531 45.835938 -11.539062 48.921875 -14.4375 C 48.816406 -15.875 48.765625 -18.320312 48.765625 -21.78125 L 48.921875 -35.359375 C 41.023438 -35.066406 34 -33.453125 27.84375 -30.515625 C 21.6875 -27.585938 18.609375 -23.09375 18.609375 -17.03125 C 18.609375 -13.46875 19.664062 -10.722656 21.78125 -8.796875 C 23.90625 -6.878906 26.601562 -5.921875 29.875 -5.921875 Z M 29.875 -5.921875 "/></g></g><g style="fill:#ffffff;fill-opacity:1;"><g transform="translate(219.88795, 153.406302)"><path style="stroke:none" d="M 5.765625 -5.921875 L 46.03125 -57.71875 C 47.570312 -59.738281 49.109375 -61.6875 50.640625 -63.5625 C 52.179688 -65.4375 53.382812 -66.613281 54.25 -67.09375 L 27.125 -66.671875 C 22.21875 -66.566406 18.78125 -64.804688 16.8125 -61.390625 C 14.84375 -57.984375 13.375 -52.957031 12.40625 -46.3125 L 7.9375 -46.3125 L 9.671875 -72.15625 L 66.234375 -72.15625 L 66.234375 -67.53125 L 25.546875 -14 C 24.390625 -12.550781 23.253906 -11.175781 22.140625 -9.875 C 21.035156 -8.582031 19.664062 -7.265625 18.03125 -5.921875 L 45.890625 -5.484375 C 51.367188 -5.390625 55.382812 -7.171875 57.9375 -10.828125 C 60.488281 -14.484375 62.242188 -19.628906 63.203125 -26.265625 L 67.390625 -26.265625 L 65.65625 0 L 5.765625 0 Z M 5.765625 -5.921875 "/></g></g><g style="fill:#ffffff;fill-opacity:1;"><g transform="translate(293.626473, 153.406302)"><path style="stroke:none" d="M 26.546875 2.3125 C 19.523438 2.3125 14.160156 0.722656 10.453125 -2.453125 C 6.753906 -5.628906 4.90625 -9.765625 4.90625 -14.859375 C 4.90625 -20.441406 7.140625 -25.15625 11.609375 -29 C 16.085938 -32.851562 21.71875 -35.71875 28.5 -37.59375 C 35.28125 -39.46875 42.085938 -40.359375 48.921875 -40.265625 L 48.921875 -49.203125 C 48.921875 -55.453125 48.003906 -60.332031 46.171875 -63.84375 C 44.347656 -67.363281 40.453125 -69.125 34.484375 -69.125 C 31.503906 -69.125 28.664062 -68.492188 25.96875 -67.234375 C 23.28125 -65.984375 21.3125 -64.109375 20.0625 -61.609375 C 21.3125 -60.265625 21.9375 -58.4375 21.9375 -56.125 C 21.9375 -54.6875 21.40625 -53.316406 20.34375 -52.015625 C 19.289062 -50.722656 17.753906 -50.078125 15.734375 -50.078125 C 13.710938 -50.078125 12.125 -50.722656 10.96875 -52.015625 C 9.8125 -53.316406 9.234375 -55.023438 9.234375 -57.140625 C 9.234375 -60.316406 10.457031 -63.226562 12.90625 -65.875 C 15.363281 -68.519531 18.78125 -70.609375 23.15625 -72.140625 C 27.53125 -73.679688 32.414062 -74.453125 37.8125 -74.453125 C 45.882812 -74.453125 51.84375 -72.3125 55.6875 -68.03125 C 59.539062 -63.75 61.421875 -56.992188 61.328125 -47.765625 L 61.1875 -15.296875 C 61.1875 -12.210938 60.992188 -8.941406 60.609375 -5.484375 L 70.84375 -6.0625 L 70.84375 0 L 50.21875 0 C 49.925781 -1.445312 49.585938 -4.1875 49.203125 -8.21875 C 42.179688 -1.195312 34.628906 2.3125 26.546875 2.3125 Z M 29.875 -5.921875 C 33.53125 -5.921875 36.847656 -6.613281 39.828125 -8 C 42.804688 -9.394531 45.835938 -11.539062 48.921875 -14.4375 C 48.816406 -15.875 48.765625 -18.320312 48.765625 -21.78125 L 48.921875 -35.359375 C 41.023438 -35.066406 34 -33.453125 27.84375 -30.515625 C 21.6875 -27.585938 18.609375 -23.09375 18.609375 -17.03125 C 18.609375 -13.46875 19.664062 -10.722656 21.78125 -8.796875 C 23.90625 -6.878906 26.601562 -5.921875 29.875 -5.921875 Z M 29.875 -5.921875 "/></g></g><g style="fill:#ffffff;fill-opacity:1;"><g transform="translate(366.499186, 153.406302)"><path style="stroke:none" d="M 90.328125 10.25 C 96.003906 15.539062 99.925781 19.125 102.09375 21 C 104.257812 22.875 106.226562 24.289062 108 25.25 C 109.78125 26.207031 111.585938 26.6875 113.421875 26.6875 L 113.421875 31.453125 L 108.796875 31.453125 C 104.566406 31.453125 101.34375 31.332031 99.125 31.09375 C 96.914062 30.851562 94.632812 30.15625 92.28125 29 C 89.925781 27.84375 87.300781 25.96875 84.40625 23.375 C 81.71875 20.96875 78.445312 17.742188 74.59375 13.703125 C 70.457031 9.566406 67.210938 6.632812 64.859375 4.90625 C 62.503906 3.175781 59.882812 2.3125 57 2.3125 C 45.644531 2.113281 36.191406 -0.554688 28.640625 -5.703125 C 21.085938 -10.847656 15.53125 -17.390625 11.96875 -25.328125 C 8.414062 -33.265625 6.640625 -41.65625 6.640625 -50.5 C 6.640625 -59.0625 8.535156 -67.382812 12.328125 -75.46875 C 16.128906 -83.550781 21.804688 -90.210938 29.359375 -95.453125 C 36.910156 -100.691406 46.078125 -103.3125 56.859375 -103.3125 C 67.921875 -103.3125 77.320312 -100.691406 85.0625 -95.453125 C 92.800781 -90.210938 98.59375 -83.550781 102.4375 -75.46875 C 106.289062 -67.382812 108.21875 -59.0625 108.21875 -50.5 C 108.21875 -43.1875 106.773438 -35.898438 103.890625 -28.640625 C 101.003906 -21.378906 96.648438 -15.078125 90.828125 -9.734375 C 85.015625 -4.398438 77.972656 -0.816406 69.703125 1.015625 C 73.640625 1.109375 77.070312 1.734375 80 2.890625 C 82.9375 4.046875 86.378906 6.5 90.328125 10.25 Z M 20.78125 -53.09375 C 20.78125 -45.5 22.171875 -37.878906 24.953125 -30.234375 C 27.742188 -22.585938 31.976562 -16.238281 37.65625 -11.1875 C 43.332031 -6.132812 50.210938 -3.609375 58.296875 -3.609375 C 65.796875 -3.609375 72.210938 -5.75 77.546875 -10.03125 C 82.890625 -14.3125 86.929688 -19.816406 89.671875 -26.546875 C 92.421875 -33.285156 93.796875 -40.359375 93.796875 -47.765625 C 93.796875 -55.941406 92.300781 -63.851562 89.3125 -71.5 C 86.332031 -79.144531 82.003906 -85.394531 76.328125 -90.25 C 70.648438 -95.113281 64.015625 -97.546875 56.421875 -97.546875 C 48.921875 -97.546875 42.472656 -95.40625 37.078125 -91.125 C 31.691406 -86.84375 27.628906 -81.285156 24.890625 -74.453125 C 22.148438 -67.628906 20.78125 -60.507812 20.78125 -53.09375 Z M 20.78125 -53.09375 "/></g></g><g style="fill:#ffffff;fill-opacity:1;"><g transform="translate(140.456002, 231.7398)"><path style="stroke:none" d="M 27.65625 -44.484375 C 22.207031 -44.484375 17.96875 -42.726562 14.9375 -39.21875 C 11.914062 -35.71875 10.40625 -30.921875 10.40625 -24.828125 C 10.40625 -18.796875 11.976562 -13.945312 15.125 -10.28125 C 18.28125 -6.613281 22.550781 -4.78125 27.9375 -4.78125 C 34.820312 -4.78125 40 -8.191406 43.46875 -15.015625 L 48.90625 -12.296875 C 46.882812 -8.054688 44.039062 -4.828125 40.375 -2.609375 C 36.707031 -0.398438 32.453125 0.703125 27.609375 0.703125 C 22.648438 0.703125 18.363281 -0.328125 14.75 -2.390625 C 11.132812 -4.453125 8.375 -7.394531 6.46875 -11.21875 C 4.570312 -15.050781 3.625 -19.585938 3.625 -24.828125 C 3.625 -32.671875 5.742188 -38.8125 9.984375 -43.25 C 14.222656 -47.695312 20.085938 -49.921875 27.578125 -49.921875 C 32.816406 -49.921875 37.191406 -48.894531 40.703125 -46.84375 C 44.222656 -44.800781 46.804688 -41.765625 48.453125 -37.734375 L 42.140625 -35.640625 C 40.992188 -38.503906 39.160156 -40.691406 36.640625 -42.203125 C 34.117188 -43.722656 31.125 -44.484375 27.65625 -44.484375 Z M 27.65625 -44.484375 "/></g></g><g style="fill:#ffffff;fill-opacity:1;"><g transform="translate(200.237325, 231.7398)"><path style="stroke:none" d="M 52.1875 -24.828125 C 52.1875 -19.679688 51.203125 -15.175781 49.234375 -11.3125 C 47.273438 -7.445312 44.457031 -4.476562 40.78125 -2.40625 C 37.101562 -0.332031 32.757812 0.703125 27.75 0.703125 C 22.695312 0.703125 18.335938 -0.320312 14.671875 -2.375 C 11.015625 -4.425781 8.21875 -7.390625 6.28125 -11.265625 C 4.351562 -15.140625 3.390625 -19.660156 3.390625 -24.828125 C 3.390625 -32.691406 5.539062 -38.835938 9.84375 -43.265625 C 14.144531 -47.703125 20.140625 -49.921875 27.828125 -49.921875 C 32.828125 -49.921875 37.164062 -48.925781 40.84375 -46.9375 C 44.519531 -44.945312 47.328125 -42.054688 49.265625 -38.265625 C 51.210938 -34.472656 52.1875 -29.992188 52.1875 -24.828125 Z M 45.390625 -24.828125 C 45.390625 -30.941406 43.859375 -35.742188 40.796875 -39.234375 C 37.734375 -42.734375 33.410156 -44.484375 27.828125 -44.484375 C 22.191406 -44.484375 17.835938 -42.757812 14.765625 -39.3125 C 11.691406 -35.863281 10.15625 -31.035156 10.15625 -24.828125 C 10.15625 -18.660156 11.707031 -13.765625 14.8125 -10.140625 C 17.925781 -6.523438 22.238281 -4.71875 27.75 -4.71875 C 33.4375 -4.71875 37.796875 -6.46875 40.828125 -9.96875 C 43.867188 -13.46875 45.390625 -18.421875 45.390625 -24.828125 Z M 45.390625 -24.828125 "/></g></g><g style="fill:#ffffff;fill-opacity:1;"><g transform="translate(263.99828, 231.7398)"><path style="stroke:none" d="M 40.640625 0 L 27.859375 -20.421875 L 12.53125 -20.421875 L 12.53125 0 L 5.859375 0 L 5.859375 -49.1875 L 29.015625 -49.1875 C 34.554688 -49.1875 38.832031 -47.945312 41.84375 -45.46875 C 44.851562 -42.988281 46.359375 -39.539062 46.359375 -35.125 C 46.359375 -31.46875 45.289062 -28.394531 43.15625 -25.90625 C 41.03125 -23.414062 38.097656 -21.84375 34.359375 -21.1875 L 48.3125 0 Z M 39.65625 -35.046875 C 39.65625 -37.910156 38.679688 -40.09375 36.734375 -41.59375 C 34.796875 -43.09375 32 -43.84375 28.34375 -43.84375 L 12.53125 -43.84375 L 12.53125 -25.703125 L 28.625 -25.703125 C 32.144531 -25.703125 34.863281 -26.519531 36.78125 -28.15625 C 38.695312 -29.800781 39.65625 -32.097656 39.65625 -35.046875 Z M 39.65625 -35.046875 "/></g></g><g style="fill:#ffffff;fill-opacity:1;"><g transform="translate(323.779603, 231.7398)"><path style="stroke:none" d="M 5.859375 0 L 5.859375 -49.1875 L 43.1875 -49.1875 L 43.1875 -43.75 L 12.53125 -43.75 L 12.53125 -27.96875 L 41.09375 -27.96875 L 41.09375 -22.59375 L 12.53125 -22.59375 L 12.53125 -5.453125 L 44.625 -5.453125 L 44.625 0 Z M 5.859375 0 "/></g></g></g></svg>